# xmcd
#
# Track frame offsets: 
#        150
#        21786
#        36082
#        51124
#        68099
#        87191
#        103210
#        120436
#        134111
#        152117
#        177415
#
# Disc length: 2979 seconds
#
# Revision: 0
# Processed by: cddbd v1.5.2PL0 Copyright (c) Steve Scherf et al.
# Submitted via: ExactAudioCopy v0.99pb5
#
DISCID=940ba10b
DTITLE=Mietek Blues Band - Zwyk³e s³owa
DYEAR=2002
DGENRE=Blues
TTITLE0=01.Trzy zywioly
TTITLE1=02.Zaspiewaj ze mna
TTITLE2=03.Wspomnienia
TTITLE3=04.Stojac posrodku drogi
TTITLE4=05.Zwykle slowa
TTITLE5=06.Kolory zycia
TTITLE6=07.Spokojny sen
TTITLE7=08.Blues dla Zygi
TTITLE8=09.Daj sobie spokoj
TTITLE9=10.Poranne lzy
TTITLE10=11.Droga w deszczu
EXTD=
EXTT0=
EXTT1=
EXTT2=
EXTT3=
EXTT4=
EXTT5=
EXTT6=
EXTT7=
EXTT8=
EXTT9=
EXTT10=
PLAYORDER=
